<svg xmlns="http://www.w3.org/2000/svg" fill="none" viewBox="0 0 128 128"><g id="hail__hail" clip-path="url(#hail__clip0_1858_8718)"><g id="hail__Sky"><g id="hail__Clouds"><g id="hail__Cloud"><path id="hail__Cloud_2" fill="url(#hail__paint0_linear_1858_8718)" stroke="#e6effc" stroke-miterlimit="10" d="M55.262 48.475c4.86-7.864 15.035-11.095 23.553-7.532 8.506 3.56 13.323 13.06 11.088 22.022l-.161.65.669-.03c7.01-.306 13.089 5.407 13.089 12.443 0 6.811-5.728 12.472-12.523 12.472H37.954c-6.826.002-12.751-5.33-13.395-12.14-.643-6.808 4.178-13.148 10.884-14.415l.483-.092-.084-.484c-.816-4.745 1.284-9.652 5.263-12.356 3.99-2.712 9.34-2.86 13.475-.373l.423.255z"/></g><animateTransform attributeName="transform" begin="0s" calcMode="spline" dur="3s" keySplines=".42 0 .58 1; .42 0 .58 1" repeatCount="indefinite" type="translate" values="0 0;0 -3;0 0"/></g></g><g id="hail__Precipitation"><g id="hail__Ice balls"><path id="hail__Ice Ball 1" fill="#86c3db" d="M52 86a3 3 0 1 0 0 5.999A3 3 0 0 0 52 86"><animateTransform attributeName="transform" begin="0s" calcMode="spline" dur="1s" keySplines=".42 0 1 1" repeatCount="indefinite" type="translate" values="0 0;0 20"/><animate attributeName="opacity" begin="0s" dur="1s" keyTimes="0;0.15;0.85;1" repeatCount="indefinite" values="0;1;1;0"/></path><path id="hail__Ice Ball 2" fill="#86c3db" d="M64 86a3 3 0 1 0 0 5.999A3 3 0 0 0 64 86"><animateTransform attributeName="transform" begin="-0.7s" calcMode="spline" dur="1s" keySplines=".42 0 1 1" repeatCount="indefinite" type="translate" values="0 0;0 20"/><animate attributeName="opacity" begin="-0.7s" dur="1s" keyTimes="0;0.15;0.85;1" repeatCount="indefinite" values="0;1;1;0"/></path><path id="hail__Ice Ball 3" fill="#86c3db" d="M76 86a3 3 0 1 0 0 5.999A3 3 0 0 0 76 86"><animateTransform attributeName="transform" begin="-0.4s" calcMode="spline" dur="1s" keySplines=".42 0 1 1" repeatCount="indefinite" type="translate" values="0 0;0 20"/><animate attributeName="opacity" begin="-0.4s" dur="1s" keyTimes="0;0.15;0.85;1" repeatCount="indefinite" values="0;1;1;0"/></path></g></g></g><defs><linearGradient id="hail__paint0_linear_1858_8718" x1="64.001" x2="64.001" y1="39" y2="89" gradientUnits="userSpaceOnUse"><stop stop-color="#f3f7fe"/><stop offset="1" stop-color="#e6effc"/></linearGradient><clipPath id="hail__clip0_1858_8718"><rect width="128" height="128" fill="#fff"/></clipPath></defs></svg>