<svg xmlns="http://www.w3.org/2000/svg" fill="none" viewBox="0 0 128 128"><g id="thunderstorms-snow__thunderstorms-snow" clip-path="url(#thunderstorms-snow__clip0_1858_10032)"><g id="thunderstorms-snow__Sky"><g id="thunderstorms-snow__Clouds"><g id="thunderstorms-snow__Cloud"><path id="thunderstorms-snow__Cloud_2" fill="url(#thunderstorms-snow__paint0_linear_1858_10032)" stroke="#e6effc" stroke-miterlimit="10" d="M55.263 48.475c4.86-7.864 15.035-11.095 23.552-7.532 8.507 3.56 13.323 13.06 11.088 22.022l-.161.65.669-.03c7.01-.306 13.089 5.407 13.089 12.443 0 6.811-5.728 12.472-12.523 12.472H37.954c-6.826.002-12.751-5.33-13.395-12.14-.643-6.808 4.178-13.148 10.884-14.415l.483-.092-.084-.484c-.816-4.745 1.284-9.652 5.263-12.356 3.99-2.712 9.341-2.86 13.475-.373l.423.255z"/></g><animateTransform attributeName="transform" begin="0s" calcMode="spline" dur="3s" keySplines=".42 0 .58 1; .42 0 .58 1" repeatCount="indefinite" type="translate" values="0 0;0 -3;0 0"/></g></g><g id="thunderstorms-snow__Precipitation"><g id="thunderstorms-snow__Snowflakes"><path id="thunderstorms-snow__Snowflake 1" fill="#86c3db" d="m52.578 90.366-1.205-.689a2.9 2.9 0 0 0-.002-1.353l1.207-.69a.83.83 0 0 0 .309-1.141.85.85 0 0 0-1.153-.306l-1.206.69a2.9 2.9 0 0 0-1.184-.677v-1.38A.85.85 0 0 0 48.5 84a.843.843 0 0 0-.844.82v1.38a2.96 2.96 0 0 0-1.185.674l-1.205-.689a.848.848 0 0 0-1.259.616.83.83 0 0 0 .415.832l1.204.689c-.106.445-.105.909.003 1.353l-1.207.69a.83.83 0 0 0-.415.832.83.83 0 0 0 .62.7.85.85 0 0 0 .64-.084l1.205-.69c.334.318.74.55 1.184.675v1.382a.85.85 0 0 0 .844.82.843.843 0 0 0 .844-.82v-1.383c.441-.129.847-.36 1.184-.673l1.206.69a.847.847 0 0 0 1.259-.616.83.83 0 0 0-.415-.832m-4.712-.28a1.24 1.24 0 0 1-.622-1.25 1.25 1.25 0 0 1 .93-1.048 1.27 1.27 0 0 1 1.329.445 1.25 1.25 0 0 1 .093 1.393 1.28 1.28 0 0 1-1.73.46"><animateTransform attributeName="transform" begin="-0.8s" calcMode="spline" dur="1s" keySplines=".42 0 1 1" repeatCount="indefinite" type="translate" values="0 0;0 20"/><animate attributeName="opacity" begin="-0.8s" dur="1s" keyTimes="0;0.15;0.85;1" repeatCount="indefinite" values="0;1;1;0"/></path><path id="thunderstorms-snow__Snowflake 2" fill="#86c3db" d="m67.578 90.366-1.204-.689a2.9 2.9 0 0 0-.003-1.353l1.207-.69a.83.83 0 0 0 .309-1.141.85.85 0 0 0-1.153-.306l-1.206.69a2.9 2.9 0 0 0-1.184-.677v-1.38A.85.85 0 0 0 63.5 84a.843.843 0 0 0-.844.82v1.38a2.96 2.96 0 0 0-1.185.674l-1.205-.689a.848.848 0 0 0-1.259.616.83.83 0 0 0 .415.832l1.204.689c-.106.445-.105.909.003 1.353l-1.207.69a.83.83 0 0 0-.415.832.83.83 0 0 0 .62.7.85.85 0 0 0 .64-.084l1.205-.69c.334.318.74.55 1.184.675v1.382a.85.85 0 0 0 .844.82.843.843 0 0 0 .844-.82v-1.383c.441-.129.847-.36 1.184-.673l1.206.69a.847.847 0 0 0 1.259-.616.83.83 0 0 0-.415-.832m-4.712-.28a1.24 1.24 0 0 1-.622-1.25 1.25 1.25 0 0 1 .93-1.048 1.27 1.27 0 0 1 1.329.445 1.25 1.25 0 0 1 .093 1.393 1.28 1.28 0 0 1-1.73.46"><animateTransform attributeName="transform" begin="-0.30000000000000004s" calcMode="spline" dur="1s" keySplines=".42 0 1 1" repeatCount="indefinite" type="translate" values="0 0;0 20"/><animate attributeName="opacity" begin="-0.30000000000000004s" dur="1s" keyTimes="0;0.15;0.85;1" repeatCount="indefinite" values="0;1;1;0"/></path><path id="thunderstorms-snow__Snowflake 3" fill="#86c3db" d="m82.578 90.366-1.204-.689a2.9 2.9 0 0 0-.003-1.353l1.207-.69a.83.83 0 0 0 .309-1.141.85.85 0 0 0-1.153-.306l-1.206.69a2.9 2.9 0 0 0-1.184-.677v-1.38A.85.85 0 0 0 78.5 84a.843.843 0 0 0-.844.82v1.38a2.96 2.96 0 0 0-1.185.674l-1.205-.689a.848.848 0 0 0-1.259.616.83.83 0 0 0 .415.832l1.204.689c-.106.445-.105.909.003 1.353l-1.207.69a.83.83 0 0 0-.415.832.83.83 0 0 0 .62.7.85.85 0 0 0 .64-.084l1.205-.69c.334.318.74.55 1.184.675v1.382a.85.85 0 0 0 .844.82.843.843 0 0 0 .844-.82v-1.383c.441-.129.847-.36 1.184-.673l1.206.69a.847.847 0 0 0 1.259-.616.83.83 0 0 0-.415-.832m-4.712-.28a1.24 1.24 0 0 1-.622-1.25 1.25 1.25 0 0 1 .93-1.048 1.27 1.27 0 0 1 1.329.445 1.25 1.25 0 0 1 .093 1.393 1.28 1.28 0 0 1-1.73.46"><animateTransform attributeName="transform" begin="-0.8s" calcMode="spline" dur="1s" keySplines=".42 0 1 1" repeatCount="indefinite" type="translate" values="0 0;0 20"/><animate attributeName="opacity" begin="-0.8s" dur="1s" keyTimes="0;0.15;0.85;1" repeatCount="indefinite" values="0;1;1;0"/></path></g></g><g id="thunderstorms-snow__Lightning"><path id="thunderstorms-snow__Lightning Bolt" fill="url(#thunderstorms-snow__paint1_linear_1858_10032)" stroke="#f6a823" stroke-miterlimit="10" d="m71.173 68.5-7.616 14.541-.384.731h11.829l-18.05 24.12 3.537-16.88.127-.603h-7.912L60.355 68.5z"><animate attributeName="opacity" begin="0s" dur="2s" keyTimes="0;0.25;0.33;0.42;0.5;0.57;0.63;0.67;1" repeatCount="indefinite" values="1;1;0;1;0;1;0;1;1"/></path></g></g><defs><linearGradient id="thunderstorms-snow__paint0_linear_1858_10032" x1="64.001" x2="64.001" y1="39" y2="89" gradientUnits="userSpaceOnUse"><stop stop-color="#f3f7fe"/><stop offset="1" stop-color="#e6effc"/></linearGradient><linearGradient id="thunderstorms-snow__paint1_linear_1858_10032" x1="64.528" x2="84.414" y1="66.038" y2="77.457" gradientUnits="userSpaceOnUse"><stop stop-color="#f7b23b"/><stop offset="1" stop-color="#f6a823"/></linearGradient><clipPath id="thunderstorms-snow__clip0_1858_10032"><rect width="128" height="128" fill="#fff"/></clipPath></defs></svg>